<svg width="138" height="54" viewBox="0 0 138 54" fill="none" xmlns="http://www.w3.org/2000/svg">
<rect y="10" width="57" height="33" fill="black"/>
<path d="M5.68406 14.2727H7.3261L16.8524 36.8267H17.0214L26.5477 14.2727H28.1897V39H26.7409V17.8587H26.596L17.6493 39H16.2245L7.27781 17.8587H7.13292V39H5.68406V14.2727ZM33.5031 14.2727H35.29L43.0777 26.2017H43.2467L51.0343 14.2727H52.8213L43.9228 27.7834V39H42.4015V27.7834L33.5031 14.2727Z" fill="white"/>
<path d="M65.5135 43V10.2727H73.4237V24.1115H73.8552L84.6737 10.2727H93.9901L82.3885 24.8786L94.1978 43H84.7376L76.5878 30.136L73.4237 34.131V43H65.5135ZM105.02 10.2727V43H97.1102V10.2727H105.02ZM108.916 16.6967V10.2727H136.577V16.6967H126.653V43H118.855V16.6967H108.916Z" fill="black"/>
</svg>
